<?xml version="1.0" encoding="utf-8"?>
<!-- Generator: Adobe Illustrator 16.0.3, SVG Export Plug-In . SVG Version: 6.00 Build 0)  -->
<!DOCTYPE svg PUBLIC "-//W3C//DTD SVG 1.1//EN" "http://www.w3.org/Graphics/SVG/1.1/DTD/svg11.dtd">
<svg version="1.1"
     id="svg2971" xmlns:sodipodi="http://sodipodi.sourceforge.net/DTD/sodipodi-0.dtd"
     xmlns:inkscape="http://www.inkscape.org/namespaces/inkscape"
     sodipodi:version="0.32" inkscape:version="0.48.5 r10040"
     sodipodi:docname="ADR_7E.svg"
     inkscape:output_extension="org.inkscape.output.svg.inkscape"
     xmlns="http://www.w3.org/2000/svg" x="0px" y="0px" width="328.846px"
     height="328.846px" viewBox="0 0 328.846 328.846"
     enable-background="new 0 0 328.846 328.846" xml:space="preserve">
<defs>
	
	
		<inkscape:perspective  id="perspective2979" sodipodi:type="inkscape:persp3d" inkscape:vp_z="744.09448 : 526.18109 : 1" inkscape:vp_x="0 : 526.18109 : 1" inkscape:vp_y="0 : 1000 : 0" inkscape:persp3d-origin="372.04724 : 350.78739 : 1">
		</inkscape:perspective>
</defs>
<sodipodi:namedview  showgrid="false" inkscape:cy="97.556839" inkscape:cx="107.73275" inkscape:zoom="3.6980609" pagecolor="#ffffff" bordercolor="#666666" borderopacity="1.0" id="base" fit-margin-left="0" fit-margin-top="0" inkscape:window-height="1018" inkscape:window-width="1920" inkscape:pageshadow="2" inkscape:current-layer="layer1" inkscape:window-x="-8" inkscape:window-y="-8" inkscape:window-maximized="1" inkscape:pageopacity="0.0" fit-margin-bottom="0" fit-margin-right="0" inkscape:document-units="px">
	</sodipodi:namedview>
<g id="layer1" transform="translate(-454.45192,330.858)" inkscape:label="Calque 1" inkscape:groupmode="layer">
	
		<rect x="503.692" y="-281.618" transform="matrix(0.7071 -0.7071 0.7071 0.7071 298.9515 388.8625)" fill="#FFFFFF" width="230.365" height="230.366"/>
	
		<path id="path441" inkscape:connector-curvature="0" sodipodi:nodetypes="ccccc" fill="none" stroke="#1F1A17" stroke-width="1.6442" stroke-linecap="round" stroke-linejoin="round" stroke-miterlimit="10" d="
		M664.416-112.884h-86.343v-47.459h86.343V-112.884z"/>
	
		<rect id="rect3165" x="503.692" y="-281.618" transform="matrix(-0.7071 -0.7071 0.7071 -0.7071 1174.1721 153.4889)" fill="none" stroke="#000000" stroke-width="3.0595" stroke-linecap="square" stroke-dasharray="12.2378,12.2378" stroke-dashoffset="7" width="230.366" height="230.365"/>
	
		<path id="path449" inkscape:connector-curvature="0" fill="none" stroke="#1F1A17" stroke-width="1.8268" stroke-linecap="round" stroke-linejoin="round" stroke-miterlimit="10" d="
		M479.578-167.341h281.332"/>
	<g id="g451" transform="matrix(3.8059094,0,0,-3.8059094,476.83824,-167.34094)">
		
			<path id="path453" inkscape:connector-curvature="0" fill="none" stroke="#1F1A17" stroke-width="0.719" stroke-linecap="round" stroke-linejoin="round" stroke-miterlimit="10" d="
			M0,0l37.44-37.2L74.64,0l-37.2,37.14L0,0z"/>
	</g>
	<path id="path3152" inkscape:connector-curvature="0" sodipodi:nodetypes="ccccccccc" d="M630.371-65.841h-16.902l-0.001,4.367
		h12.065c-4.529,5.502-7.123,11.773-7.781,18.816h5.031c0.05-3.268,0.718-6.715,2.022-10.338c1.272-3.624,3.128-6.563,5.565-8.816
		V-65.841z"/>
	<g id="flowRoot3121" transform="matrix(3.0875788,0,0,3.0875788,403.5605,-63.34456)">
		<path id="path3158" d="M53.692-36.203h-0.97l0-7.18l4.97,0v0.86h-4l0,2.2h3.52l0,0.86h-3.52V-36.203z"/>
		<path id="path3160" d="M59.694-36.203l-0.97,0l0-7.18h0.97V-36.203z"/>
		<path id="path3162" d="M65.515-41.283c-0.013-0.28-0.075-0.513-0.185-0.7c-0.11-0.187-0.25-0.337-0.42-0.45
			c-0.17-0.113-0.358-0.193-0.565-0.24s-0.41-0.07-0.61-0.07c-0.153,0-0.325,0.015-0.515,0.045c-0.19,0.03-0.368,0.09-0.535,0.18
			c-0.167,0.09-0.307,0.217-0.42,0.38c-0.113,0.164-0.17,0.382-0.17,0.655c0,0.153,0.025,0.282,0.075,0.385
			c0.05,0.103,0.115,0.19,0.195,0.26c0.08,0.07,0.17,0.125,0.27,0.165c0.1,0.04,0.203,0.074,0.31,0.1l2.05,0.47
			c0.233,0.053,0.45,0.13,0.65,0.23c0.2,0.1,0.372,0.228,0.515,0.385c0.143,0.157,0.257,0.342,0.34,0.555
			c0.084,0.213,0.125,0.463,0.125,0.75c0,0.427-0.088,0.78-0.265,1.06c-0.177,0.28-0.403,0.502-0.68,0.665
			c-0.277,0.163-0.58,0.278-0.91,0.345c-0.33,0.067-0.648,0.1-0.955,0.1c-0.333,0-0.618-0.022-0.855-0.065
			c-0.236-0.043-0.44-0.1-0.61-0.17c-0.17-0.07-0.31-0.145-0.42-0.225c-0.11-0.08-0.205-0.157-0.285-0.23
			c-0.307-0.28-0.505-0.569-0.595-0.865c-0.09-0.297-0.135-0.615-0.135-0.955l0.91,0c0,0.327,0.06,0.597,0.18,0.81
			c0.12,0.213,0.275,0.385,0.465,0.515c0.19,0.13,0.402,0.222,0.635,0.275c0.234,0.053,0.467,0.08,0.7,0.08
			c0.173,0,0.37-0.015,0.59-0.045c0.22-0.03,0.425-0.088,0.615-0.175c0.19-0.087,0.35-0.208,0.48-0.365
			c0.13-0.157,0.195-0.365,0.195-0.625c0-0.187-0.025-0.345-0.075-0.475c-0.05-0.13-0.133-0.242-0.25-0.335
			c-0.117-0.093-0.273-0.175-0.47-0.245c-0.197-0.07-0.442-0.142-0.735-0.215l-1.47-0.34c-0.12-0.026-0.267-0.071-0.44-0.135
			c-0.173-0.063-0.34-0.158-0.5-0.285c-0.16-0.127-0.298-0.292-0.415-0.495c-0.117-0.203-0.175-0.461-0.175-0.775
			c0-0.28,0.047-0.553,0.14-0.82c0.093-0.266,0.24-0.503,0.44-0.71c0.2-0.207,0.457-0.373,0.77-0.5
			c0.313-0.127,0.687-0.19,1.12-0.19c0.627,0,1.123,0.082,1.49,0.245c0.367,0.164,0.645,0.363,0.835,0.6
			c0.19,0.237,0.313,0.487,0.37,0.75c0.056,0.264,0.092,0.495,0.105,0.695H65.515z"/>
		<path id="path3164" d="M72.033-41.283c-0.014-0.28-0.075-0.513-0.185-0.7c-0.11-0.187-0.25-0.337-0.42-0.45
			c-0.17-0.114-0.358-0.194-0.565-0.24c-0.207-0.047-0.41-0.07-0.61-0.07c-0.153,0-0.325,0.015-0.515,0.045
			c-0.19,0.03-0.369,0.09-0.535,0.18c-0.167,0.09-0.307,0.216-0.42,0.38c-0.113,0.164-0.17,0.382-0.17,0.655
			c0,0.153,0.025,0.282,0.075,0.385c0.05,0.103,0.115,0.19,0.195,0.26c0.08,0.07,0.17,0.125,0.27,0.165
			c0.1,0.04,0.204,0.073,0.31,0.1l2.05,0.47c0.233,0.053,0.45,0.13,0.65,0.23c0.2,0.1,0.372,0.228,0.515,0.385
			c0.144,0.157,0.257,0.341,0.34,0.555s0.125,0.464,0.125,0.75c0,0.427-0.088,0.78-0.265,1.06c-0.176,0.28-0.403,0.502-0.68,0.665
			c-0.276,0.163-0.58,0.278-0.91,0.345c-0.33,0.067-0.648,0.1-0.955,0.1c-0.334,0-0.618-0.022-0.855-0.065
			c-0.237-0.043-0.44-0.1-0.61-0.17c-0.17-0.07-0.31-0.145-0.42-0.225c-0.11-0.08-0.205-0.156-0.285-0.23
			c-0.307-0.28-0.505-0.569-0.595-0.865c-0.09-0.297-0.135-0.615-0.135-0.955h0.91c0,0.326,0.06,0.597,0.18,0.81
			c0.12,0.213,0.275,0.385,0.465,0.515c0.19,0.13,0.402,0.221,0.635,0.275c0.233,0.053,0.467,0.08,0.7,0.08
			c0.173,0,0.37-0.015,0.59-0.045c0.22-0.03,0.425-0.088,0.615-0.175c0.19-0.087,0.35-0.209,0.48-0.365
			c0.13-0.157,0.195-0.365,0.195-0.625c0-0.187-0.025-0.345-0.075-0.475c-0.05-0.13-0.133-0.241-0.25-0.335
			c-0.117-0.093-0.273-0.175-0.47-0.245c-0.197-0.07-0.442-0.142-0.735-0.215l-1.469-0.34c-0.12-0.027-0.267-0.071-0.44-0.135
			c-0.173-0.063-0.34-0.158-0.5-0.285c-0.16-0.127-0.298-0.292-0.415-0.495c-0.117-0.203-0.175-0.462-0.175-0.775
			c0-0.28,0.047-0.553,0.14-0.82c0.093-0.267,0.24-0.504,0.44-0.71c0.2-0.207,0.457-0.373,0.77-0.5
			c0.313-0.127,0.687-0.19,1.12-0.19c0.627,0,1.123,0.082,1.49,0.245c0.367,0.164,0.645,0.364,0.835,0.6
			c0.19,0.237,0.313,0.487,0.37,0.75c0.057,0.263,0.092,0.495,0.105,0.695L72.033-41.283z"/>
		<path id="path3166" d="M75.34-36.203h-0.97l0-7.18h0.97L75.34-36.203z"/>
		<path id="path3168" d="M77.802-37.063h3.64l0,0.86l-4.61,0v-7.18l0.97,0L77.802-37.063z"/>
		<path id="path3170" d="M87.637-36.203h-5.3v-7.18l5.23,0v0.86h-4.26l0,2.2h3.93v0.86l-3.93,0l0,2.4h4.329L87.637-36.203z"/>
	</g>
	<g id="flowRoot3147" transform="matrix(1.6755267,0,0,1.6755267,635.04237,48.391964)">
		<path id="path3173" d="M-23.042-108.949c-0.059-0.502-0.268-0.889-0.627-1.162s-0.804-0.413-1.336-0.419
			c-0.699,0.019-1.241,0.258-1.628,0.716c-0.386,0.459-0.582,1.028-0.588,1.706c0.006,0.68,0.202,1.249,0.588,1.708
			c0.386,0.459,0.929,0.698,1.628,0.716c0.568-0.009,1.028-0.182,1.38-0.52s0.548-0.79,0.589-1.351h-0.79
			c-0.033,0.344-0.147,0.631-0.344,0.857c-0.196,0.228-0.475,0.344-0.835,0.353c-0.492-0.017-0.85-0.2-1.074-0.548
			c-0.224-0.347-0.335-0.752-0.331-1.213c-0.003-0.462,0.107-0.866,0.331-1.214c0.224-0.347,0.582-0.53,1.074-0.547
			c0.334,0.004,0.594,0.092,0.778,0.26c0.184,0.168,0.309,0.389,0.375,0.66H-23.042z"/>
		<path id="path3175" d="M-21.484-109.76l1.315,0.001c0.217-0.008,0.404,0.037,0.56,0.132c0.155,0.096,0.237,0.286,0.243,0.574
			c-0.001,0.244-0.068,0.427-0.203,0.551c-0.135,0.125-0.33,0.186-0.587,0.187l-1.328-0.001V-109.76z M-22.293-105.795h0.809
			l0-1.905h1.192c0.364-0.001,0.611,0.097,0.74,0.294c0.128,0.198,0.188,0.508,0.18,0.931c-0.003,0.114,0.003,0.231,0.015,0.35
			c0.013,0.118,0.048,0.228,0.108,0.329l0.868,0.001c-0.087-0.099-0.151-0.259-0.192-0.478c-0.041-0.22-0.061-0.465-0.061-0.74
			c-0.011-0.358-0.091-0.608-0.239-0.75c-0.148-0.14-0.297-0.216-0.448-0.228l0-0.013c0.056-0.014,0.144-0.057,0.264-0.128
			c0.12-0.071,0.232-0.188,0.335-0.353c0.103-0.164,0.159-0.392,0.165-0.685c-0.001-0.395-0.129-0.702-0.386-0.92
			c-0.256-0.217-0.637-0.328-1.143-0.33h-2.209V-105.795z"/>
		<path id="path3177" d="M-17.739-105.796l0.81,0.001v-4.625l-0.81-0.001V-105.796z"/>
		<path id="path3179" d="M-16.383-109.72h1.464v3.925h0.81l0-3.925h1.471l0-0.701l-3.744,0.001L-16.383-109.72z"/>
		<path id="path3181" d="M-12.096-105.795l0.81-0.001l0.001-4.624l-0.81-0.001V-105.795z"/>
		<path id="path3183" d="M-6.367-108.95c-0.059-0.501-0.268-0.889-0.627-1.162c-0.359-0.272-0.804-0.412-1.336-0.418
			c-0.699,0.019-1.242,0.257-1.628,0.716c-0.386,0.459-0.582,1.028-0.588,1.706c0.006,0.68,0.202,1.249,0.588,1.708
			c0.386,0.459,0.928,0.697,1.628,0.716c0.568-0.009,1.028-0.182,1.38-0.52s0.548-0.789,0.589-1.351h-0.79
			c-0.033,0.345-0.147,0.631-0.344,0.858c-0.197,0.227-0.476,0.344-0.835,0.353c-0.492-0.018-0.851-0.201-1.075-0.548
			c-0.224-0.347-0.335-0.752-0.331-1.214c-0.003-0.462,0.107-0.866,0.331-1.214c0.224-0.347,0.582-0.53,1.075-0.547
			c0.334,0.004,0.593,0.092,0.778,0.261c0.185,0.168,0.309,0.389,0.375,0.659L-6.367-108.95z"/>
		<path id="path3185" d="M-3.967-109.624h0.02l0.692,1.989h-1.412L-3.967-109.624z M-6.156-105.795h0.836l0.434-1.224h1.846
			l0.434,1.224h0.868l-1.782-4.625h-0.861L-6.156-105.795z"/>
		<path id="path3187" d="M-1.291-105.795H1.87v-0.699h-2.352v-3.926h-0.81V-105.795z"/>
		<path id="path3189" d="M2.428-105.795h0.81v-4.625l-0.81,0.001V-105.795z"/>
		<path id="path3191" d="M3.784-109.72h1.464v3.925h0.81v-3.925h1.471v-0.7H3.784V-109.72z"/>
		<path id="path3193" d="M9.276-105.795h0.809l0.001-1.814l1.729-2.811h-0.907l-1.204,2.073l-1.225-2.073l-0.94-0.001l1.736,2.812
			V-105.795z"/>
		<path id="path3195" d="M-30.504-100.859c0.023,0.571,0.215,0.989,0.576,1.256c0.361,0.266,0.813,0.399,1.353,0.395
			c0.48,0.005,0.901-0.107,1.265-0.336c0.365-0.229,0.556-0.6,0.575-1.114c0.001-0.247-0.073-0.481-0.221-0.701
			c-0.149-0.22-0.374-0.379-0.679-0.478c-0.09-0.026-0.236-0.066-0.436-0.119c-0.201-0.054-0.392-0.104-0.573-0.152
			c-0.182-0.048-0.29-0.076-0.324-0.085c-0.168-0.044-0.301-0.115-0.4-0.212c-0.098-0.095-0.149-0.224-0.152-0.385
			c0.012-0.229,0.107-0.388,0.284-0.476c0.176-0.088,0.365-0.131,0.564-0.126c0.283-0.003,0.514,0.058,0.693,0.184
			c0.179,0.126,0.281,0.337,0.305,0.632l0.81,0.001c-0.013-0.484-0.189-0.851-0.526-1.1c-0.336-0.249-0.753-0.376-1.249-0.377
			c-0.436-0.001-0.822,0.109-1.159,0.333c-0.336,0.223-0.514,0.565-0.532,1.028c-0.007,0.245,0.065,0.474,0.215,0.685
			c0.15,0.212,0.419,0.374,0.808,0.487c0.315,0.084,0.583,0.154,0.806,0.209c0.223,0.056,0.414,0.114,0.573,0.172
			c0.098,0.033,0.186,0.093,0.262,0.178c0.076,0.086,0.116,0.217,0.121,0.392c0.004,0.182-0.07,0.342-0.222,0.481
			c-0.152,0.138-0.404,0.212-0.757,0.219c-0.332,0.003-0.608-0.073-0.829-0.228c-0.22-0.156-0.335-0.41-0.343-0.763H-30.504z"/>
		<path id="path3197" d="M-24.373-103.146h0.019l0.693,1.989l-1.413-0.001L-24.373-103.146z M-26.563-99.318h0.835l0.434-1.224
			h1.846l0.434,1.224h0.868l-1.781-4.625h-0.861L-26.563-99.318z"/>
		<path id="path3199" d="M-21.698-99.318h0.809l0-2.054l2.092,0.001l0-0.661l-2.092,0.001v-1.212h2.384l0-0.7h-3.193V-99.318z"/>
		<path id="path3201" d="M-17.852-99.318h3.374l0-0.699h-2.565l0-1.355h2.332l0-0.66l-2.332,0.001v-1.212l2.52-0.001l0-0.699
			l-3.33-0.001L-17.852-99.318z"/>
		<path id="path3203" d="M-14.206-103.243h1.464v3.926h0.81v-3.925l1.47-0.001l0-0.699h-3.744L-14.206-103.243z"/>
		<path id="path3205" d="M-8.715-99.318h0.81v-1.814l1.73-2.81l-0.907-0.001l-1.205,2.074l-1.224-2.074l-0.939,0.001l1.736,2.811
			V-99.318z"/>
		<path id="path3207" d="M-3.923-99.318l0.81,0.001v-4.625h-0.81V-99.318z"/>
		<path id="path3209" d="M-2.159-99.318h0.771v-3.401h0.02l2.105,3.401l0.854-0.001l-0.001-4.625l-0.77,0.001l-0.001,3.407
			l-0.012,0.001l-2.112-3.407h-0.854V-99.318z"/>
		<path id="path3211" d="M3.364-103.282h0.797c0.62,0.01,1.035,0.17,1.247,0.479c0.212,0.308,0.31,0.699,0.295,1.173
			c0.015,0.474-0.083,0.866-0.295,1.174c-0.212,0.307-0.627,0.467-1.247,0.477l-0.797,0.001V-103.282z M2.554-99.318h1.918
			c0.709-0.016,1.227-0.242,1.555-0.677c0.328-0.437,0.49-0.981,0.486-1.635c0.004-0.654-0.158-1.199-0.486-1.634
			c-0.328-0.435-0.846-0.662-1.555-0.678H2.554V-99.318z"/>
		<path id="path3213" d="M7.236-99.318h3.375v-0.699l-2.564-0.001v-1.353l2.331-0.001v-0.66H8.046v-1.212h2.519v-0.7H7.236V-99.318z
			"/>
		<path id="path3215" d="M12.449-101.715l-1.638,2.397l0.926,0.001l1.173-1.768l1.153,1.768h0.985l-1.639-2.397l1.529-2.229
			l-0.907,0.001l-1.095,1.633l-1.05-1.633H10.92L12.449-101.715z"/>
	</g>
</g>
</svg>
