<?xml version="1.0" encoding="UTF-8" standalone="no"?>
<!-- Created with Inkscape (http://www.inkscape.org/) -->
<svg
        xmlns:dc="http://purl.org/dc/elements/1.1/"
        xmlns:cc="http://creativecommons.org/ns#"
        xmlns:rdf="http://www.w3.org/1999/02/22-rdf-syntax-ns#"
        xmlns="http://www.w3.org/2000/svg"
        xmlns:sodipodi="http://sodipodi.sourceforge.net/DTD/sodipodi-0.dtd"
        xmlns:inkscape="http://www.inkscape.org/namespaces/inkscape"
        width="103.125"
        height="103.125"
        id="svg3298"
        sodipodi:version="0.32"
        inkscape:version="0.46"
        version="1.0"
        sodipodi:docname="ADR_1.6.svg"
        inkscape:output_extension="org.inkscape.output.svg.inkscape">
  <defs
     id="defs3300">
    <inkscape:perspective
       sodipodi:type="inkscape:persp3d"
       inkscape:vp_x="0 : 526.18109 : 1"
       inkscape:vp_y="0 : 1000 : 0"
       inkscape:vp_z="744.09448 : 526.18109 : 1"
       inkscape:persp3d-origin="372.04724 : 350.78739 : 1"
       id="perspective3306" />
    <inkscape:perspective
       id="perspective3061"
       inkscape:persp3d-origin="372.04724 : 350.78739 : 1"
       inkscape:vp_z="744.09448 : 526.18109 : 1"
       inkscape:vp_y="0 : 1000 : 0"
       inkscape:vp_x="0 : 526.18109 : 1"
       sodipodi:type="inkscape:persp3d" />
    <inkscape:perspective
       id="perspective3535"
       inkscape:persp3d-origin="372.04724 : 350.78739 : 1"
       inkscape:vp_z="744.09448 : 526.18109 : 1"
       inkscape:vp_y="0 : 1000 : 0"
       inkscape:vp_x="0 : 526.18109 : 1"
       sodipodi:type="inkscape:persp3d" />
  </defs>
  <sodipodi:namedview
     id="base"
     pagecolor="#ffffff"
     bordercolor="#666666"
     borderopacity="1.0"
     inkscape:pageopacity="0.0"
     inkscape:pageshadow="2"
     inkscape:zoom="4.5187879"
     inkscape:cx="51.5625"
     inkscape:cy="33.858637"
     inkscape:document-units="px"
     inkscape:current-layer="layer1"
     showgrid="false"
     inkscape:window-width="1024"
     inkscape:window-height="687"
     inkscape:window-x="-4"
     inkscape:window-y="-4" />
  <metadata
     id="metadata3303">
    <rdf:RDF>
      <cc:Work
         rdf:about="">
        <dc:format>image/svg+xml</dc:format>
        <dc:type
           rdf:resource="http://purl.org/dc/dcmitype/StillImage" />
      </cc:Work>
    </rdf:RDF>
  </metadata>
  <g
     inkscape:label="Calque 1"
     inkscape:groupmode="layer"
     id="layer1"
     transform="translate(-433.58392,-639.41576)">
    <g
       id="g135"
       transform="matrix(1.25,0,0,-1.25,433.58392,690.94076)">
      <path
         d="M 0,0 L 41.28,-41.28 L 82.5,0 L 41.28,41.22 L 0,0"
         style="fill:#e77817;fill-opacity:1;fill-rule:evenodd;stroke:none"
         id="path137" />
    </g>
    <g
       id="g323"
       transform="matrix(1.25,0,0,-1.25,484.28392,710.14076)">
      <path
         d="M 0,0 L 0,-1.68 L -1.68,-0.96 L -1.92,-2.4 L -0.24,-2.88 L -1.44,-4.32 L -0.48,-5.04 L 0.72,-3.6 L 1.68,-5.04 L 2.88,-4.32 L 1.68,-2.88 L 3.36,-2.4 L 3.12,-0.96 L 1.2,-1.68 L 1.2,0 L 0,0"
         style="fill:#1f1a17;fill-opacity:1;fill-rule:evenodd;stroke:none"
         id="path325" />
    </g>
    <g
       id="g327"
       transform="matrix(1.25,0,0,-1.25,485.24781,721.24076)">
      <path
         d="M 0,0 L -0.48,-0.96 L -1.92,-1.2 L -1.92,-2.4 L -0.24,-2.4 L -0.24,-7.2 L 1.2,-7.2 L 1.2,0 L 0,0"
         style="fill:#1f1a17;fill-opacity:1;fill-rule:evenodd;stroke:none"
         id="path329" />
    </g>
    <g
       id="g359"
       transform="matrix(1.25,0,0,-1.25,501.98392,670.01576)">
      <path
         d="M 0,0 L -3.36,0 C -3.744,1.532 -4.819,1.85 -6.24,1.68 L -7.2,1.2 L -7.44,0.72 L -7.92,-0.72 L -8.16,-2.64 L -7.68,-2.16 L -6.96,-1.68 L -6,-1.68 L -5.04,-1.44 L -3.84,-1.68 C -1.54,-2.101 -0.192,-3.456 0.24,-5.76 C 0.972,-11.331 -3.129,-13.847 -8.16,-12.42 C -12.928,-10.158 -12.817,0.024 -9.12,3.12 C -7.436,4.559 -5.15,4.607 -3.12,4.08 C -1.03,3.442 -0.312,1.996 0,0"
         style="fill:#1f1a17;fill-opacity:1;fill-rule:evenodd;stroke:none"
         id="path361" />
    </g>
    <g
       id="g363"
       transform="matrix(1.25,0,0,-1.25,494.78392,675.41576)">
      <path
         d="M 0,0 L -0.96,0 L -1.68,-0.72 L -2.4,-1.68 L -2.4,-2.64 L -2.16,-4.08 L -1.68,-4.98 L -1.44,-5.46 C 1.946,-6.494 3.076,-4.882 2.64,-1.44 L 1.2,0 L 0,0"
         style="fill:#e77817;fill-opacity:1;fill-rule:evenodd;stroke:none"
         id="path365" />
    </g>
    <path
       d="M 480.08392,685.54076 L 484.58392,685.54076 L 484.58392,681.11576 L 480.08392,681.11576 L 480.08392,685.54076 z"
       style="fill:#1f1a17;fill-opacity:1;fill-rule:nonzero;stroke:none"
       id="path367" />
    <g
       id="g369"
       transform="matrix(1.25,0,0,-1.25,473.18392,664.61576)">
      <path
         d="M 0,0 L 2.64,0 L 2.64,-16.74 L -0.48,-16.74 L -0.48,-5.28 L -4.56,-5.28 L -4.56,-2.88 L -4.32,-2.88 L -2.4,-2.64 L -1.2,-2.16 L -0.72,-1.92 L -0.24,-1.44 L 0,-0.72 L 0,0"
         style="fill:#1f1a17;fill-opacity:1;fill-rule:evenodd;stroke:none"
         id="path371" />
    </g>
    <g
       transform="translate(10187.001,72.71342)"
       id="g3537"
       inkscape:label="Calque 1">
      <path
         sodipodi:nodetypes="ccccc"
         clip-path="none"
         d="M -9746.9675,618.22734 L -9701.7425,663.22734 L -9656.7425,618.22734 L -9701.7425,573.30234 L -9746.9675,618.22734 z"
         style="fill:none;stroke:#1f1a17;stroke-width:0.89874995;stroke-linecap:round;stroke-linejoin:round;stroke-miterlimit:10;stroke-dasharray:none;stroke-opacity:1"
         id="path273" />
    </g>
  </g>
</svg>
